<svg width="40.000000" height="40.000000" viewBox="0 0 40 40" fill="none" xmlns="http://www.w3.org/2000/svg" xmlns:xlink="http://www.w3.org/1999/xlink">
	<desc>
			Created with Pixso.
	</desc>
	<defs>
		<clipPath id="clip60_433">
			<rect id="Instagram" width="40.000000" height="40.000000" transform="translate(-0.500000 0.000000)" fill="white" fill-opacity="0"/>
		</clipPath>
	</defs>
	<rect id="Instagram" width="40.000000" height="40.000000" transform="translate(-0.500000 0.000000)" fill="#FFFFFF" fill-opacity="0"/>
	<g clip-path="url(#clip60_433)">
		<path id="Vector" d="M27.83 3.33C32.43 3.33 36.16 7.06 36.16 11.66L36.16 28.33C36.16 32.93 32.43 36.66 27.83 36.66L11.16 36.66C6.56 36.66 2.83 32.93 2.83 28.33L2.83 11.66C2.83 7.06 6.56 3.33 11.16 3.33L27.83 3.33Z" stroke="#000000" stroke-opacity="1.000000" stroke-width="4.000000" stroke-linejoin="round"/>
		<path id="Vector" d="M25.48 22.99C24.84 24.24 23.82 25.25 22.56 25.88C21.31 26.51 19.89 26.73 18.51 26.5C17.12 26.28 15.84 25.63 14.85 24.64C13.86 23.65 13.21 22.37 12.99 20.98C12.76 19.6 12.98 18.18 13.61 16.93C14.24 15.67 15.25 14.65 16.5 14.01C17.74 13.36 19.16 13.12 20.55 13.33C21.96 13.54 23.27 14.2 24.28 15.21C25.29 16.22 25.95 17.53 26.16 18.95C26.37 20.33 26.13 21.75 25.48 22.99Z" stroke="#000000" stroke-opacity="1.000000" stroke-width="4.000000" stroke-linejoin="round"/>
		<path id="Vector" d="M28.66 10.83L28.68 10.83" stroke="#000000" stroke-opacity="1.000000" stroke-width="4.000000" stroke-linejoin="round" stroke-linecap="round"/>
	</g>
</svg>
