<svg width="40.000000" height="40.000000" viewBox="0 0 40 40" fill="none" xmlns="http://www.w3.org/2000/svg" xmlns:xlink="http://www.w3.org/1999/xlink">
	<desc>
			Created with Pixso.
	</desc>
	<defs>
		<clipPath id="clip60_437">
			<rect id="Twitter" width="40.000000" height="40.000000" fill="white" fill-opacity="0"/>
		</clipPath>
	</defs>
	<rect id="Twitter" width="40.000000" height="40.000000" fill="#FFFFFF" fill-opacity="0"/>
	<g clip-path="url(#clip60_437)">
		<path id="Vector" d="M33.09 7.55C32.09 6.39 30.76 5.57 29.27 5.2C27.79 4.83 26.23 4.92 24.8 5.47C23.37 6.01 22.14 6.99 21.28 8.25C20.42 9.52 19.97 11.02 20 12.55L20 14.21C17.07 14.29 14.16 13.64 11.55 12.32C8.93 11 6.68 9.06 5 6.66C5 6.66 -1.67 21.66 13.33 28.33C9.9 30.66 5.81 31.83 1.66 31.66C16.66 40 35 31.66 35 12.5C34.99 12.03 34.95 11.57 34.86 11.11C36.56 9.43 37.76 7.32 38.33 5C36.73 6.12 34.97 6.98 33.09 7.55Z" stroke="#000000" stroke-opacity="1.000000" stroke-width="4.000000" stroke-linejoin="round"/>
	</g>
</svg>
