<svg width="45.000000" height="45.000000" viewBox="0 0 45 45" fill="none" xmlns="http://www.w3.org/2000/svg" xmlns:xlink="http://www.w3.org/1999/xlink">
	<desc>
			Created with Pixso.
	</desc>
	<defs>
		<clipPath id="clip60_506">
			<rect id="Frame" width="45.000000" height="45.000000" fill="white" fill-opacity="0"/>
		</clipPath>
	</defs>
	<rect id="Frame" width="45.000000" height="45.000000" fill="#FFFFFF" fill-opacity="0"/>
	<g clip-path="url(#clip60_506)">
		<path id="Vector" d="M37.06 29.06C35.73 31.7 33.7 33.93 31.18 35.49C28.67 37.04 25.77 37.87 22.81 37.87C20.33 37.88 17.89 37.3 15.68 36.18L5 39.75L8.56 29.06C7.44 26.85 6.86 24.41 6.87 21.93C6.87 18.97 7.7 16.07 9.25 13.56C10.81 11.04 13.04 9.01 15.68 7.68C17.89 6.57 20.33 5.99 22.81 6L23.75 6C27.65 6.21 31.34 7.86 34.11 10.63C36.88 13.4 38.53 17.09 38.75 21L38.75 21.93C38.75 24.41 38.17 26.85 37.06 29.06Z" stroke="#FFFFFF" stroke-opacity="1.000000" stroke-width="5.000000" stroke-linejoin="round"/>
	</g>
</svg>
