<svg width="45.000000" height="45.000000" viewBox="0 0 45 45" fill="none" xmlns="http://www.w3.org/2000/svg" xmlns:xlink="http://www.w3.org/1999/xlink">
	<desc>
			Created with Pixso.
	</desc>
	<defs>
		<clipPath id="clip60_499">
			<rect id="Frame" width="45.000000" height="45.000000" fill="white" fill-opacity="0"/>
		</clipPath>
	</defs>
	<rect id="Frame" width="45.000000" height="45.000000" fill="#FFFFFF" fill-opacity="0"/>
	<g clip-path="url(#clip60_499)">
		<path id="Vector" d="M34.82 6.78C33.57 6.26 32.23 6 30.87 6C29.52 6 28.18 6.26 26.92 6.78C25.67 7.3 24.54 8.06 23.58 9.02L21.59 11L19.6 9.02C17.67 7.08 15.05 6 12.31 6C9.57 6 6.95 7.08 5.02 9.02C3.08 10.95 2 13.58 2 16.31C2 19.05 3.08 21.67 5.02 23.6L7 25.59L21.59 40.18L36.18 25.59L38.17 23.6C39.12 22.65 39.88 21.51 40.4 20.26C40.92 19.01 41.19 17.67 41.19 16.31C41.19 14.96 40.92 13.61 40.4 12.36C39.88 11.11 39.12 9.97 38.17 9.02C37.21 8.06 36.07 7.3 34.82 6.78Z" stroke="#FFFFFF" stroke-opacity="1.000000" stroke-width="5.000000" stroke-linejoin="round"/>
	</g>
</svg>
